<svg xmlns="http://www.w3.org/2000/svg" width="24.558" height="24.548" viewBox="0 0 24.558 24.548">
  <path data-name="Path 907" d="M1.638,46.941l.261.009c.168.009.363.009.586.009a13.432,13.432,0,0,0,9.529-3.946,13.4,13.4,0,0,0,3.955-9.529c0-.223-.009-.419-.009-.586v-.009l-.019-.251a11.35,11.35,0,0,0-3.666-.614,10.28,10.28,0,0,0-1.321.084,10.312,10.312,0,0,1-3.006,6.83,10.248,10.248,0,0,1-6.84,3.006,12.474,12.474,0,0,0-.074,1.331A11.388,11.388,0,0,0,1.638,46.941Zm21.636-1.3A9.263,9.263,0,0,0,19.5,46.727l.707.112a13.362,13.362,0,0,0,1.852.121c.233,0,.428,0,.6-.009l.251-.009A10.383,10.383,0,0,0,23.273,45.638ZM18.3,47.5a10.411,10.411,0,0,0-.968.838,10.293,10.293,0,0,0-.838.958,12.01,12.01,0,0,1,.354,1.759A14.4,14.4,0,0,1,17,53.064c0,.186-.009.4-.019.633s-.019.437-.037.623a.5.5,0,0,1-.335.437,12.2,12.2,0,0,1-2.131.6,12.381,12.381,0,0,1-2.205.2A12.264,12.264,0,0,1,0,43.274a12.382,12.382,0,0,1,.2-2.205,12.986,12.986,0,0,1,.586-2.1.51.51,0,0,1,.447-.363c.186-.009.391-.028.623-.037s.447-.009.633-.009a13.969,13.969,0,0,1,2.075.149,14.361,14.361,0,0,1,1.694.344,10.291,10.291,0,0,0,.958-.838,8.128,8.128,0,0,0,.838-.958,14.911,14.911,0,0,1-.344-1.7,13.844,13.844,0,0,1-.149-2.066c0-.186.009-.391.019-.633q.014-.335.028-.614a.524.524,0,0,1,.354-.456,12.836,12.836,0,0,1,2.112-.586,12.382,12.382,0,0,1,2.205-.2A12.28,12.28,0,0,1,24.558,43.274a12.594,12.594,0,0,1-.791,4.336.526.526,0,0,1-.447.335c-.186.009-.391.028-.623.037s-.447.009-.633.009a14.328,14.328,0,0,1-1.991-.14A12.387,12.387,0,0,1,18.3,47.5ZM15.727,50.5a9.221,9.221,0,0,0-1.089,3.769,9.961,9.961,0,0,0,1.3-.363l.019-.251c0-.177.009-.372.009-.6a13.619,13.619,0,0,0-.13-1.87C15.81,50.961,15.764,50.728,15.727,50.5ZM13.6,54.441A10.295,10.295,0,0,1,23.45,44.6a12.474,12.474,0,0,0,.074-1.331,11.145,11.145,0,0,0-.614-3.666l-.251-.009c-.168-.009-.372-.009-.6-.009a13.35,13.35,0,0,0-4.253.679A13.166,13.166,0,0,0,14.1,42.195a15.382,15.382,0,0,1-1.349,1.554,15.3,15.3,0,0,1-1.554,1.34,13.423,13.423,0,0,0-2.606,7.975c0,.223,0,.419.009.586l.019.261a11.294,11.294,0,0,0,3.657.614A10.427,10.427,0,0,0,13.6,54.441ZM7.426,47.127c.186.158.354.316.521.484s.326.335.475.512A15.133,15.133,0,0,1,9.2,46.345,13.191,13.191,0,0,1,7.426,47.127Zm.623,2.168a8.994,8.994,0,0,0-.828-.958,10.411,10.411,0,0,0-.968-.838,14.384,14.384,0,0,1-3.769.493l-.419-.009A11.134,11.134,0,0,0,4.327,51.23a11.455,11.455,0,0,0,3.238,2.261l-.009-.428A14.786,14.786,0,0,1,8.049,49.295ZM9.91,32.275a10.842,10.842,0,0,0-1.3.363l-.009.251c-.009.167-.009.363-.009.6a14.416,14.416,0,0,0,.13,1.917c.037.214.065.428.112.642A9.212,9.212,0,0,0,9.91,32.275ZM5.044,39.822c-.2-.037-.419-.074-.623-.1a14.59,14.59,0,0,0-1.936-.13c-.223,0-.419,0-.586.009-.084,0-.168.009-.261.009a12.247,12.247,0,0,0-.363,1.3A9.221,9.221,0,0,0,5.044,39.822Zm12.079-.4c-.167-.149-.335-.307-.493-.465s-.335-.344-.493-.53a14.48,14.48,0,0,1-.782,1.777A15,15,0,0,1,17.122,39.422ZM16.5,37.253a9.462,9.462,0,0,0,.856.977,9.988,9.988,0,0,0,.949.819,14.366,14.366,0,0,1,3.759-.493l.428.009a11.314,11.314,0,0,0-2.261-3.248,11.455,11.455,0,0,0-3.238-2.261l.009.428A14.387,14.387,0,0,1,16.5,37.253Z" transform="translate(0 -31)" fill="#ffffff"/>
</svg>
