<svg xmlns="http://www.w3.org/2000/svg" width="17" height="17" viewBox="0 0 17 17">
  <path data-name="Path 892" d="M8.5,0A8.5,8.5,0,1,0,17,8.5,8.493,8.493,0,0,0,8.5,0Zm0,16A7.555,7.555,0,0,1,1,8.5,7.555,7.555,0,0,1,8.5,1,7.555,7.555,0,0,1,16,8.5,7.555,7.555,0,0,1,8.5,16Z" fill="#2e4096"/>
  <path id="Path_893" data-name="Path 893" d="M7.288,51.554a.671.671,0,0,0-1.014,0c-.237.235-.474.47-.708.71a.14.14,0,0,1-.2.036c-.153-.084-.317-.151-.464-.243a7.358,7.358,0,0,1-1.774-1.614A4.2,4.2,0,0,1,2.5,49.423a.146.146,0,0,1,.036-.187c.237-.229.468-.464.7-.7a.674.674,0,0,0,0-1.038c-.185-.187-.371-.371-.556-.558s-.381-.385-.574-.574a.675.675,0,0,0-1.014,0c-.239.235-.468.476-.712.708a1.155,1.155,0,0,0-.363.779,3.3,3.3,0,0,0,.255,1.421A8.635,8.635,0,0,0,1.8,51.829a9.485,9.485,0,0,0,3.141,2.458,4.543,4.543,0,0,0,1.74.506,1.275,1.275,0,0,0,1.094-.417c.2-.227.433-.434.648-.652a.678.678,0,0,0,0-1.032Q7.86,52.121,7.288,51.554Z" transform="matrix(0.998, -0.07, 0.07, 0.998, 0.915, -41.357)" fill="#2e4096"/>
</svg>
